{"title":"The.Message.2009.DVDRip.XviD.AC3-ViSiON","uid":5400121,"size":1572049179,"categoryP":"video","categoryS":"movies","magnet":"?xt=urn:btih:c7c6306ac6907ece722b654c18dc4267113f7b1b&amp;dn=The.Message.2009.DVDRip.XviD.AC3-ViSiON&amp;tr=udp%3A%2F%2Ftracker.openbittorrent.com%3A80&amp;tr=udp%3A%2F%2Fopen.demonii.com%3A1337&amp;tr=udp%3A%2F%2Ftracker.coppersurfer.tk%3A6969&amp;tr=udp%3A%2F%2Fexodus.desync.com%3A6969","seeders":1,"leechers":0,"uploader":"CODYBOSS1969","files":10,"time":1267387538,"description":"General\nComplete name : The.Message.2009.DVDRip.XviD.AC3-ViSiON.avi\nFormat : AVI\nFormat/Info : Audio Video Interleave\nFile size : 1.45 GiB\nDuration : 1h 53mn\nOverall bit rate : 1 831 Kbps\nWriting application : VirtualDubMod 1.5.10.2 (build 2542/release)\nWriting library : VirtualDubMod build 2542/release\n\nVideo\nFormat : MPEG-4 Visual\nFormat profile : Streaming Video@L1\nFormat settings, BVOP : Yes\nFormat settings, QPel : No\nFormat settings, GMC : No warppoints\nFormat settings, Matrix : Default\nMuxing mode : Packet Bitstream\nCodec ID : XVID\nCodec ID/Hint : XviD\nDuration : 1h 53mn\nBit rate : 1 437 Kbps\nWidth : 720 pixels\nHeight : 304 pixels\nDisplay aspect ratio : 2.35\nFrame rate : 25.000 fps\nResolution : 24 bits\nColorimetry : 4:2:0\nScan type : Progressive\nBits/(Pixel*Frame) : 0.263\nStream size : 1.14 GiB (78%)\nWriting library : XviD 50\n\nAudio\nFormat : AC-3\nFormat/Info : Audio Coding 3\nCodec ID : 2000\nDuration : 1h 53mn\nBit rate mode : Constant\nBit rate : 384 Kbps\nChannel(s) : 6 channels\nChannel positions : Front: L C R, Rear: L R, LFE\nSampling rate : 48.0 KHz\nStream size : 312 MiB (21%)\nAlignment : Split accross interleaves\nInterleave, duration : 40 ms (1.00 video frame)\nInterleave, preload duration : 500 ms\n\n\nSubtitles included: English, Dutch, Chinese\n &lt;a href=&quot;\nhttp://www.imdb.com/title/tt1434423/&quot; rel=&quot;nofollow&quot; target=&quot;_NEW&quot;&gt;\nhttp://www.imdb.com/title/tt1434423/&lt;/a&gt;\n\n\n\nDON'T FORGET TO SEED !!!\n\n\nHIT AND RUN IS NOT AN OPTION BECAUSE THIS IS ... A TORRENT !!!","torrent":{"xt":"urn:btih:c7c6306ac6907ece722b654c18dc4267113f7b1b","amp;dn":"The.Message.2009.DVDRip.XviD.AC3-ViSiON","amp;tr":["udp%3A%2F%2Ftracker.openbittorrent.com%3A80","udp%3A%2F%2Fopen.demonii.com%3A1337","udp%3A%2F%2Ftracker.coppersurfer.tk%3A6969","udp%3A%2F%2Fexodus.desync.com%3A6969"],"infoHash":"c7c6306ac6907ece722b654c18dc4267113f7b1b","infoHashBuffer":{"type":"Buffer","data":[199,198,48,106,198,144,126,206,114,43,101,76,24,220,66,103,17,63,123,27]},"announce":[],"urlList":[]}}